<svg xmlns="http://www.w3.org/2000/svg" version="1.1" xmlns:xlink="http://www.w3.org/1999/xlink"
    xmlns:svgjs="http://svgjs.dev/svgjs" width="1440" height="560" preserveAspectRatio="none" viewBox="0 0 1440 560">
    <g mask="url(&quot;#SvgjsMask1072&quot;)" fill="none">
        <rect width="1440" height="560" x="0" y="0" fill="url(&quot;#SvgjsLinearGradient1073&quot;)"></rect>
        <path
            d="M -855.3564190842322,220 C -759.36,261.2 -567.36,435.4 -375.35641908423224,426 C -183.36,416.6 -87.36,180.4 104.64358091576776,173 C 296.64,165.6 392.64,383 584.6435809157678,389 C 776.64,395 893.57,211.6 1064.6435809157679,203 C 1235.71,194.4 1364.93,317.4 1440,346"
            stroke="rgba(76, 29, 149, 1)" stroke-width="2"></path>
        <path
            d="M -49.669230256555295,440 C 46.33,401 238.33,265 430.3307697434447,245 C 622.33,225 718.33,338.4 910.3307697434448,340 C 1102.33,341.6 1198.33,259 1390.3307697434448,253 C 1582.33,247 1860.4,344.6 1870.3307697434448,310 C 1880.26,275.4 1526.07,126 1440,80"
            stroke="rgba(76, 29, 149, 1)" stroke-width="2"></path>
        <path
            d="M -14.500687099166385,261 C 81.5,274.4 273.5,359.8 465.4993129008336,328 C 657.5,296.2 753.5,111.4 945.4993129008336,102 C 1137.5,92.6 1233.5,276.6 1425.4993129008335,281 C 1617.5,285.4 1902.6,97.8 1905.4993129008335,124 C 1908.4,150.2 1533.1,354.4 1440,412"
            stroke="rgba(76, 29, 149, 1)" stroke-width="2"></path>
        <path
            d="M -91.51857321303959,136 C 4.48,208.8 196.48,472.2 388.4814267869604,500 C 580.48,527.8 676.48,301.2 868.4814267869604,275 C 1060.48,248.8 1156.48,393 1348.4814267869604,369 C 1540.48,345 1810.18,166.8 1828.4814267869604,155 C 1846.79,143.2 1517.7,279 1440,310"
            stroke="rgba(76, 29, 149, 1)" stroke-width="2"></path>
    </g>
    <defs>
        <mask id="SvgjsMask1072">
            <rect width="1440" height="560" fill="#ffffff"></rect>
        </mask>
        <linearGradient x1="50%" y1="100%" x2="50%" y2="0%" gradientUnits="userSpaceOnUse" id="SvgjsLinearGradient1073">
            <stop stop-color="#0e2a47" offset="0"></stop>
            <stop stop-color="rgba(76, 29, 149, 1)" offset="1"></stop>
        </linearGradient>
    </defs>
</svg>