<svg width="64" height="65" viewBox="0 0 64 65" fill="none" xmlns="http://www.w3.org/2000/svg">
<path fill-rule="evenodd" clip-rule="evenodd" d="M34.3904 32.435C34.3904 38.2899 29.6764 43.0365 23.8611 43.0365C18.0459 43.0365 13.3322 38.2913 13.3322 32.435C13.3322 26.5786 18.0463 21.8339 23.8611 21.8339C29.676 21.8339 34.3904 26.5801 34.3904 32.435ZM45.9416 32.4358C45.9416 37.9475 43.5844 42.4152 40.6769 42.4152C37.7695 42.4152 35.4123 37.9461 35.4123 32.4358C35.4123 26.9256 37.7695 22.4564 40.6769 22.4564C43.5844 22.4564 45.9416 26.9256 45.9416 32.4358ZM48.8147 41.3763C49.8373 41.3763 50.6664 37.3734 50.6664 32.4351C50.6664 27.4973 49.838 23.494 48.8151 23.494C47.7922 23.494 46.9631 27.4984 46.9631 32.4351C46.9631 37.3719 47.7922 41.3763 48.8147 41.3763Z" fill="white"/>
</svg>
