<svg width="64" height="65" viewBox="0 0 64 65" fill="none" xmlns="http://www.w3.org/2000/svg">
<path fill-rule="evenodd" clip-rule="evenodd" d="M41.9311 47.0628C42.432 47.3997 43.0775 47.484 43.6531 47.2771C44.2285 47.0687 44.6516 46.6017 44.7791 46.0358C46.1309 40.0006 49.41 24.7247 50.6405 19.2347C50.7338 18.8209 50.5782 18.391 50.236 18.1146C49.8938 17.8383 49.4194 17.7585 48.9962 17.9077C42.474 20.2012 22.3876 27.3611 14.1775 30.2471C13.6564 30.4303 13.3173 30.9063 13.3344 31.4279C13.3531 31.951 13.7233 32.4048 14.2569 32.5569C17.9387 33.6032 22.7718 35.0589 22.7718 35.0589C22.7718 35.0589 25.0303 41.5389 26.2079 44.8343C26.3556 45.2481 26.6963 45.5732 27.1459 45.6855C27.5939 45.7964 28.073 45.6796 28.4074 45.3797C30.2988 43.6832 33.2232 41.0601 33.2232 41.0601C33.2232 41.0601 38.7795 44.9304 41.9311 47.0628ZM24.8045 34.2402L27.4163 42.4241L27.9965 37.2415C27.9965 37.2415 38.0871 28.595 43.8395 23.6667C44.0075 23.5218 44.0307 23.2795 43.8908 23.1095C43.7524 22.9396 43.4973 22.8996 43.3059 23.0149C36.639 27.0596 24.8045 34.2402 24.8045 34.2402Z" fill="white"/>
</svg>
